<svg xmlns="http://www.w3.org/2000/svg" width="17" height="17" viewBox="0 0 17 17">
  <path fill="rgb(0,143,255)" fill-rule="evenodd" d="M11.38192749 10.6918335h.76786804L17 15.5517578 15.55174255 17l-4.85992431-4.85021973v-.76782226l-.26243592-.27215576c-1.10806274.95251464-2.54658508 1.52600097-4.1114807 1.52600097C2.82847594 12.63580322 0 9.80731202 0 6.3178711 0 2.82849121 2.82847595 0 6.31790161 0c3.4894104 0 6.31788635 2.82849121 6.31788635 6.3178711 0 1.5649414-.57347107 3.003479-1.52601623 4.11151122l.27215576.26245118zM1.94396973 6.3178711c0 2.42028808 1.95368957 4.3739624 4.37393188 4.3739624s4.37393189-1.95367432 4.37393189-4.3739624c0-2.42022706-1.95368958-4.37390137-4.37393189-4.37390137-2.4202423 0-4.37393188 1.95367431-4.37393188 4.37390136z"/>
</svg>
